<mxfile host="app.diagrams.net" modified="2024-06-19T13:13:20.723Z" agent="Mozilla/5.0 (Windows NT 10.0; Win64; x64) AppleWebKit/537.36 (KHTML, like Gecko) Chrome/125.0.0.0 Safari/537.36" etag="JALZcPmFwTQgK654C6x0" version="24.5.5" type="device">
  <diagram name="Page-1" id="HrosWUGwYtN4Ko9XaBse">
    <mxGraphModel dx="909" dy="564" grid="1" gridSize="10" guides="1" tooltips="1" connect="1" arrows="1" fold="1" page="1" pageScale="1" pageWidth="827" pageHeight="1169" math="0" shadow="0">
      <root>
        <mxCell id="0" />
        <mxCell id="1" parent="0" />
        <mxCell id="gMTKuGzuzfFl0prhN9vn-2" value="Shell Globbing" style="swimlane;whiteSpace=wrap;html=1;" parent="1" vertex="1">
          <mxGeometry x="140" y="40" width="375" height="430" as="geometry" />
        </mxCell>
        <mxCell id="gMTKuGzuzfFl0prhN9vn-3" value="&lt;div&gt;&lt;font style=&quot;font-size: 10px;&quot;&gt;Bash itself cannot recognize regular exp.&lt;/font&gt;&lt;/div&gt;&lt;div&gt;&lt;font size=&quot;3&quot; style=&quot;&quot;&gt;(Read sed and awk commands) that interpret&lt;/font&gt;&lt;/div&gt;&lt;div&gt;&lt;font size=&quot;3&quot; style=&quot;&quot;&gt;regular expressions&lt;/font&gt;&lt;/div&gt;&lt;font size=&quot;3&quot; style=&quot;&quot;&gt;Shell Globbing is file expression expansion&amp;nbsp;&lt;/font&gt;&lt;div&gt;&lt;span style=&quot;background-color: initial;&quot;&gt;&lt;font size=&quot;3&quot;&gt;before a&amp;nbsp;&lt;/font&gt;&lt;/span&gt;&lt;/div&gt;&lt;div&gt;&lt;font size=&quot;3&quot;&gt;&lt;span style=&quot;background-color: initial;&quot;&gt;command&amp;nbsp;&lt;/span&gt;&lt;span style=&quot;background-color: initial;&quot;&gt;is executed.&amp;nbsp;&lt;/span&gt;&lt;span style=&quot;background-color: initial;&quot;&gt;Regular&amp;nbsp;&lt;/span&gt;&lt;/font&gt;&lt;/div&gt;&lt;div&gt;&lt;font size=&quot;3&quot;&gt;&lt;span style=&quot;background-color: initial;&quot;&gt;Expression&amp;nbsp;&lt;/span&gt;&lt;span style=&quot;background-color: initial;&quot;&gt;expansion only occurs&amp;nbsp;&lt;/span&gt;&lt;span style=&quot;background-color: initial;&quot;&gt;for&amp;nbsp;&lt;/span&gt;&lt;/font&gt;&lt;/div&gt;&lt;div&gt;&lt;font size=&quot;3&quot;&gt;&lt;span style=&quot;background-color: initial;&quot;&gt;the&amp;nbsp;&lt;/span&gt;&lt;span style=&quot;background-color: initial;&quot;&gt;current working directory&amp;nbsp;&lt;/span&gt;&lt;/font&gt;&lt;/div&gt;&lt;div&gt;&lt;span style=&quot;background-color: initial;&quot;&gt;&lt;font size=&quot;3&quot;&gt;(a security feature)&amp;nbsp;&lt;/font&gt;&lt;/span&gt;&lt;/div&gt;&lt;div&gt;&lt;span style=&quot;background-color: initial;&quot;&gt;&lt;font size=&quot;3&quot;&gt;&lt;br&gt;&lt;/font&gt;&lt;/span&gt;&lt;/div&gt;&lt;div&gt;&lt;span style=&quot;background-color: initial;&quot;&gt;&lt;font size=&quot;3&quot;&gt;Expressions in quotes are never expanded.&lt;/font&gt;&lt;/span&gt;&lt;/div&gt;&lt;div&gt;&lt;div style=&quot;&quot;&gt;&lt;span style=&quot;background-color: initial;&quot;&gt;&lt;font size=&quot;3&quot; style=&quot;&quot;&gt;&lt;br&gt;&lt;/font&gt;&lt;/span&gt;&lt;/div&gt;&lt;div style=&quot;&quot;&gt;&lt;font size=&quot;3&quot;&gt;@(file1|file2) enforce single match(bash does not&lt;/font&gt;&lt;/div&gt;&lt;div style=&quot;&quot;&gt;&lt;font size=&quot;3&quot;&gt;use standard regex set)&lt;/font&gt;&lt;/div&gt;&lt;div style=&quot;&quot;&gt;&lt;font size=&quot;3&quot;&gt;*/ Any directory&amp;nbsp;&lt;/font&gt;&lt;/div&gt;&lt;div style=&quot;&quot;&gt;&lt;span style=&quot;background-color: initial;&quot;&gt;&lt;font size=&quot;3&quot; style=&quot;&quot;&gt;&lt;br&gt;&lt;/font&gt;&lt;/span&gt;&lt;/div&gt;&lt;div style=&quot;&quot;&gt;&lt;span style=&quot;background-color: initial;&quot;&gt;&lt;font size=&quot;3&quot; style=&quot;&quot;&gt;&lt;br&gt;&lt;/font&gt;&lt;/span&gt;&lt;/div&gt;&lt;div style=&quot;&quot;&gt;&lt;span style=&quot;background-color: initial;&quot;&gt;&lt;font size=&quot;3&quot; style=&quot;&quot;&gt;&lt;br&gt;&lt;/font&gt;&lt;/span&gt;&lt;/div&gt;&lt;div style=&quot;&quot;&gt;&lt;span style=&quot;background-color: initial;&quot;&gt;&lt;font size=&quot;3&quot; style=&quot;&quot;&gt;&lt;br&gt;&lt;/font&gt;&lt;/span&gt;&lt;/div&gt;&lt;div style=&quot;font-size: 17px;&quot;&gt;&lt;span style=&quot;background-color: initial;&quot;&gt;&lt;br&gt;&lt;/span&gt;&lt;/div&gt;&lt;/div&gt;" style="text;html=1;align=left;verticalAlign=middle;resizable=0;points=[];autosize=1;strokeColor=none;fillColor=none;" parent="gMTKuGzuzfFl0prhN9vn-2" vertex="1">
          <mxGeometry x="5" y="15" width="370" height="390" as="geometry" />
        </mxCell>
        <mxCell id="gMTKuGzuzfFl0prhN9vn-4" value="&lt;font size=&quot;1&quot;&gt;&lt;b&gt;Link :-&amp;nbsp;&lt;a href=&quot;https://compenv.phys.ethz.ch/linux/basics_1/52_shell_globbing/#&quot;&gt;https://compenv.phys.ethz.ch/linux/basics_1/52_shell_globbing/#&lt;/a&gt;&lt;/b&gt;&lt;/font&gt;" style="text;html=1;align=center;verticalAlign=middle;whiteSpace=wrap;rounded=0;" parent="gMTKuGzuzfFl0prhN9vn-2" vertex="1">
          <mxGeometry x="42" y="300" width="296" height="190" as="geometry" />
        </mxCell>
        <mxCell id="gMTKuGzuzfFl0prhN9vn-5" value="Use the set command to prevent&amp;nbsp;&lt;div&gt;globbing&lt;/div&gt;&lt;div&gt;&lt;br&gt;&lt;/div&gt;&lt;div&gt;&lt;span style=&quot;background-color: rgb(255, 255, 255);&quot;&gt;&lt;font color=&quot;#000000&quot;&gt;set -f noglob&lt;/font&gt;&lt;/span&gt;&lt;/div&gt;" style="rounded=0;whiteSpace=wrap;html=1;fillColor=#60a917;fontColor=#ffffff;strokeColor=#2D7600;" parent="gMTKuGzuzfFl0prhN9vn-2" vertex="1">
          <mxGeometry x="180" y="280" width="147.5" height="100" as="geometry" />
        </mxCell>
        <mxCell id="1x7jqF-2lvT1V5s10KUF-3" value="" style="edgeStyle=orthogonalEdgeStyle;rounded=0;orthogonalLoop=1;jettySize=auto;html=1;" edge="1" parent="1" source="1x7jqF-2lvT1V5s10KUF-1" target="1x7jqF-2lvT1V5s10KUF-2">
          <mxGeometry relative="1" as="geometry" />
        </mxCell>
        <mxCell id="1x7jqF-2lvT1V5s10KUF-13" value="" style="edgeStyle=orthogonalEdgeStyle;rounded=0;orthogonalLoop=1;jettySize=auto;html=1;" edge="1" parent="1" source="1x7jqF-2lvT1V5s10KUF-1" target="1x7jqF-2lvT1V5s10KUF-12">
          <mxGeometry relative="1" as="geometry" />
        </mxCell>
        <mxCell id="1x7jqF-2lvT1V5s10KUF-1" value="See the $LANG&lt;div&gt;(case sensitive globbing)&lt;br&gt;&lt;div&gt;variable is&amp;nbsp;&lt;/div&gt;&lt;div&gt;set or&amp;nbsp;&lt;/div&gt;&lt;div&gt;not set?&lt;/div&gt;&lt;/div&gt;" style="rhombus;whiteSpace=wrap;html=1;" vertex="1" parent="1">
          <mxGeometry x="560" y="175" width="160" height="160" as="geometry" />
        </mxCell>
        <mxCell id="1x7jqF-2lvT1V5s10KUF-5" value="" style="edgeStyle=orthogonalEdgeStyle;rounded=0;orthogonalLoop=1;jettySize=auto;html=1;" edge="1" parent="1" source="1x7jqF-2lvT1V5s10KUF-2" target="1x7jqF-2lvT1V5s10KUF-4">
          <mxGeometry relative="1" as="geometry" />
        </mxCell>
        <mxCell id="1x7jqF-2lvT1V5s10KUF-2" value="Remember globbing&amp;nbsp;&lt;span style=&quot;background-color: initial;&quot;&gt;does not use the&amp;nbsp;&lt;/span&gt;&lt;span style=&quot;background-color: initial;&quot;&gt;complete&amp;nbsp;&lt;/span&gt;&lt;span style=&quot;background-color: initial;&quot;&gt;standard regex set so see the link&lt;/span&gt;&lt;div&gt;&lt;b style=&quot;font-size: x-small; text-align: center;&quot;&gt;Link :-&amp;nbsp;&lt;a href=&quot;https://compenv.phys.ethz.ch/linux/basics_1/52_shell_globbing/#&quot;&gt;https://compenv.phys.ethz.ch/linux/basics_1/52_shell_globbing/#&lt;/a&gt;&lt;/b&gt;&lt;span style=&quot;background-color: initial;&quot;&gt;&lt;br&gt;&lt;/span&gt;&lt;/div&gt;&lt;div&gt;for complete globbing character set.&lt;/div&gt;&lt;div&gt;that consists of wildcard characters&amp;nbsp;&lt;/div&gt;&lt;div&gt;&lt;br&gt;&lt;/div&gt;" style="whiteSpace=wrap;html=1;align=left;" vertex="1" parent="1">
          <mxGeometry x="587.5" y="350" width="205" height="170" as="geometry" />
        </mxCell>
        <mxCell id="1x7jqF-2lvT1V5s10KUF-4" value="Suppose we have some files with names - fileA, fileAB, fileABCDE and we do ls file* we get&lt;div&gt;all these files matched.. However if we&amp;nbsp;&lt;/div&gt;&lt;div&gt;&lt;span style=&quot;background-color: initial;&quot;&gt;do -&amp;nbsp;&lt;/span&gt;&lt;br&gt;&lt;/div&gt;&lt;div&gt;ls file.* we &lt;span style=&quot;background-color: rgb(169, 196, 235);&quot;&gt;&lt;font color=&quot;#1a1a1a&quot;&gt;do not get the result&lt;/font&gt;&lt;/span&gt;&lt;span style=&quot;color: rgb(255, 153, 204); background-color: rgb(169, 196, 235);&quot;&gt;&amp;nbsp; &amp;nbsp;&lt;/span&gt;&lt;span style=&quot;background-color: rgb(255, 255, 255);&quot;&gt;&lt;font color=&quot;#1a1a1a&quot;&gt;as &#39;.&#39; here does not&amp;nbsp;&lt;/font&gt;&lt;/span&gt;&lt;/div&gt;&lt;div&gt;&lt;span style=&quot;background-color: rgb(255, 255, 255);&quot;&gt;&lt;font color=&quot;#1a1a1a&quot;&gt;stand for any one character&amp;nbsp; as globbing does&amp;nbsp;&lt;/font&gt;&lt;/span&gt;&lt;/div&gt;&lt;div&gt;&lt;span style=&quot;background-color: rgb(255, 255, 255);&quot;&gt;&lt;font color=&quot;#1a1a1a&quot;&gt;not use standard regex set but uses a set of&amp;nbsp; wildcard&lt;/font&gt;&lt;/span&gt;&lt;/div&gt;&lt;div&gt;&lt;span style=&quot;background-color: rgb(255, 255, 255);&quot;&gt;&lt;font color=&quot;#1a1a1a&quot;&gt;characters that are different&lt;/font&gt;&lt;/span&gt;&lt;/div&gt;" style="whiteSpace=wrap;html=1;aspect=fixed;align=left;" vertex="1" parent="1">
          <mxGeometry x="545" y="585" width="290" height="290" as="geometry" />
        </mxCell>
        <mxCell id="1x7jqF-2lvT1V5s10KUF-7" value="" style="edgeStyle=orthogonalEdgeStyle;rounded=0;orthogonalLoop=1;jettySize=auto;html=1;" edge="1" parent="1" source="1x7jqF-2lvT1V5s10KUF-6" target="1x7jqF-2lvT1V5s10KUF-1">
          <mxGeometry relative="1" as="geometry">
            <Array as="points">
              <mxPoint x="690" y="150" />
              <mxPoint x="690" y="150" />
            </Array>
          </mxGeometry>
        </mxCell>
        <mxCell id="1x7jqF-2lvT1V5s10KUF-9" value="" style="edgeStyle=orthogonalEdgeStyle;rounded=0;orthogonalLoop=1;jettySize=auto;html=1;" edge="1" parent="1" source="1x7jqF-2lvT1V5s10KUF-6" target="1x7jqF-2lvT1V5s10KUF-8">
          <mxGeometry relative="1" as="geometry" />
        </mxCell>
        <mxCell id="1x7jqF-2lvT1V5s10KUF-11" value="" style="edgeStyle=orthogonalEdgeStyle;rounded=0;orthogonalLoop=1;jettySize=auto;html=1;" edge="1" parent="1" source="1x7jqF-2lvT1V5s10KUF-6" target="1x7jqF-2lvT1V5s10KUF-10">
          <mxGeometry relative="1" as="geometry" />
        </mxCell>
        <mxCell id="1x7jqF-2lvT1V5s10KUF-6" value="Check if globbing&lt;div&gt;is enabled.. by&amp;nbsp;&lt;/div&gt;&lt;div&gt;tapping into the&lt;/div&gt;&lt;div&gt;values of variables&lt;/div&gt;&lt;div&gt;noglob,nocaseglob&lt;/div&gt;&lt;div&gt;etc&lt;/div&gt;" style="ellipse;whiteSpace=wrap;html=1;aspect=fixed;" vertex="1" parent="1">
          <mxGeometry x="690" y="100" width="130" height="130" as="geometry" />
        </mxCell>
        <mxCell id="1x7jqF-2lvT1V5s10KUF-15" style="edgeStyle=orthogonalEdgeStyle;rounded=0;orthogonalLoop=1;jettySize=auto;html=1;entryX=1;entryY=0.5;entryDx=0;entryDy=0;" edge="1" parent="1" source="1x7jqF-2lvT1V5s10KUF-8" target="1x7jqF-2lvT1V5s10KUF-12">
          <mxGeometry relative="1" as="geometry" />
        </mxCell>
        <mxCell id="1x7jqF-2lvT1V5s10KUF-8" value="set command" style="whiteSpace=wrap;html=1;" vertex="1" parent="1">
          <mxGeometry x="850" y="55" width="120" height="60" as="geometry" />
        </mxCell>
        <mxCell id="1x7jqF-2lvT1V5s10KUF-14" style="edgeStyle=orthogonalEdgeStyle;rounded=0;orthogonalLoop=1;jettySize=auto;html=1;entryX=0.5;entryY=0;entryDx=0;entryDy=0;" edge="1" parent="1" source="1x7jqF-2lvT1V5s10KUF-10" target="1x7jqF-2lvT1V5s10KUF-12">
          <mxGeometry relative="1" as="geometry">
            <Array as="points">
              <mxPoint x="870" y="100" />
              <mxPoint x="870" y="225" />
            </Array>
          </mxGeometry>
        </mxCell>
        <mxCell id="1x7jqF-2lvT1V5s10KUF-10" value="shopt&lt;div&gt;command&lt;/div&gt;" style="whiteSpace=wrap;html=1;" vertex="1" parent="1">
          <mxGeometry x="530" y="70" width="120" height="60" as="geometry" />
        </mxCell>
        <mxCell id="1x7jqF-2lvT1V5s10KUF-12" value="You can set env variables and shell variables onto .bashrc&lt;div&gt;so to start with specific&lt;/div&gt;&lt;div&gt;shell options&lt;/div&gt;" style="whiteSpace=wrap;html=1;fillColor=#008a00;fontColor=#ffffff;strokeColor=#005700;" vertex="1" parent="1">
          <mxGeometry x="827" y="230" width="150" height="105" as="geometry" />
        </mxCell>
        <mxCell id="1x7jqF-2lvT1V5s10KUF-25" value="Default Behavior of Globbing" style="swimlane;whiteSpace=wrap;html=1;" vertex="1" parent="1">
          <mxGeometry x="150" y="580" width="220" height="200" as="geometry" />
        </mxCell>
        <mxCell id="1x7jqF-2lvT1V5s10KUF-26" value="Case insensitive globbing occurs&lt;div&gt;by default.&lt;/div&gt;" style="text;html=1;whiteSpace=wrap;overflow=hidden;rounded=0;" vertex="1" parent="1x7jqF-2lvT1V5s10KUF-25">
          <mxGeometry x="20" y="50" width="180" height="120" as="geometry" />
        </mxCell>
      </root>
    </mxGraphModel>
  </diagram>
</mxfile>
